# xmcd
#
# Track frame offsets:
#	150
#	12779
#	29439
#	42266
#	51858
#	63504
#	74821
#	85602
#	105825
#	119950
#	153668
#	166548
#	190902
#	204476
#	215257
#	227804
#	238310
#	249500
#	264157
#	276627
#	290300
#	308870
# Disc length: 4397 seconds
# Revision: 1
# Processed by: cddbd v1.5.2PL0 Copyright (c) Steve Scherf et al.
#
# Submitted via: libkcddb 0.31
#
DISCID=40112b16
DTITLE=Cantango Berlin - Cultura Tanguera
DYEAR=2006
DGENRE=Tango
TTITLE0=A la gran muñeca
TTITLE1=Gallo ciego
TTITLE2=El amanecer
TTITLE3=El apache argentino
TTITLE4=Felicia
TTITLE5=Milonguita cumbanchera
TTITLE6=El torito
TTITLE7=Taquito militar
TTITLE8=A la flaca
TTITLE9=Kicho
TTITLE10=Ché bandoneón
TTITLE11=Garúa
TTITLE12=Desde el alma
TTITLE13=Rosa de otoño
TTITLE14=Palomita blanca
TTITLE15=La trampera
TTITLE16=Don Juan
TTITLE17=Sueños y sombras
TTITLE18=El esquinazo
TTITLE19=Canaro en París
TTITLE20=Aquellos tangos camperos
TTITLE21=Adioses (Arlequín porteño III)
EXTD=Cantango Berlin Nº2
EXTT0=
EXTT1=
EXTT2=
EXTT3=
EXTT4=
EXTT5=
EXTT6=
EXTT7=
EXTT8=
EXTT9=
EXTT10=
EXTT11=
EXTT12=
EXTT13=
EXTT14=
EXTT15=
EXTT16=
EXTT17=
EXTT18=
EXTT19=
EXTT20=
EXTT21=
PLAYORDER=
